<?xml version="1.0" encoding="utf-8" ?>
<svg baseProfile="full" height="26.5cm" version="1.1" viewBox="-42.2 -42.2 84.4 84.4" width="26.5cm" xmlns="http://www.w3.org/2000/svg" xmlns:ev="http://www.w3.org/2001/xml-events" xmlns:xlink="http://www.w3.org/1999/xlink"><defs /><g transform="rotate(-0.0, 0, 0)"><path d="M 31.94633735998348,0 A 31.94633735998348,31.94633735998348 0 1,1 -31.94633735998348,0 A 31.94633735998348,31.94633735998348 0 1,1 31.94633735998348,0 M 1.0000000000000018,-29.84633735998348 A 1.0,1.0 0 1,0 -0.9999999999999982,-29.84633735998348 A 1.0,1.0 0 1,0 1.0000000000000018,-29.84633735998348 M 16.22277561794254,-25.672377301132823 A 1.0,1.0 0 1,0 14.222775617942537,-25.672377301132823 A 1.0,1.0 0 1,0 16.22277561794254,-25.672377301132823 M 27.18779212475688,-14.317939706412627 A 1.0,1.0 0 1,0 25.18779212475688,-14.317939706412627 A 1.0,1.0 0 1,0 27.18779212475688,-14.317939706412627 M 30.828171304059655,1.0411774400253517 A 1.0,1.0 0 1,0 28.828171304059655,1.0411774400253517 A 1.0,1.0 0 1,0 30.828171304059655,1.0411774400253517 M 26.125711350368785,16.10908076036292 A 1.0,1.0 0 1,0 24.125711350368785,16.10908076036292 A 1.0,1.0 0 1,0 26.125711350368785,16.10908076036292 M 14.395674487542019,26.671328403920217 A 1.0,1.0 0 1,0 12.395674487542019,26.671328403920217 A 1.0,1.0 0 1,0 14.395674487542019,26.671328403920217 M -1.0810874489837672,29.773695249928718 A 1.0,1.0 0 1,0 -3.081087448983767,29.773695249928718 A 1.0,1.0 0 1,0 -1.0810874489837672,29.773695249928718 M -15.975776229512892,24.548459731955703 A 1.0,1.0 0 1,0 -17.975776229512892,24.548459731955703 A 1.0,1.0 0 1,0 -15.975776229512892,24.548459731955703 M -26.12239752723093,12.457102639891952 A 1.0,1.0 0 1,0 -28.12239752723093,12.457102639891952 A 1.0,1.0 0 1,0 -26.12239752723093,12.457102639891952 M -28.68297551159321,-3.118464138659194 A 1.0,1.0 0 1,0 -30.68297551159321,-3.118464138659194 A 1.0,1.0 0 1,0 -28.68297551159321,-3.118464138659194 M -22.941325137487265,-17.821806992195434 A 1.0,1.0 0 1,0 -24.941325137487265,-17.821806992195434 A 1.0,1.0 0 1,0 -22.941325137487265,-17.821806992195434 M -10.503366692173174,-27.540450405745844 A 1.0,1.0 0 1,0 -12.503366692173174,-27.540450405745844 A 1.0,1.0 0 1,0 -10.503366692173174,-27.540450405745844 M 5.1520447046591,-29.556122522693297 A 1.0,1.0 0 1,0 3.1520447046591,-29.556122522693297 A 1.0,1.0 0 1,0 5.1520447046591,-29.556122522693297 M 8.046138035710475,-25.69784491905431 A 1.0,1.0 0 1,0 6.0461380357104755,-25.69784491905431 A 1.0,1.0 0 1,0 8.046138035710475,-25.69784491905431 M 20.167633010913182,-18.51024417615831 A 1.0,1.0 0 1,0 18.167633010913182,-18.51024417615831 A 1.0,1.0 0 1,0 20.167633010913182,-18.51024417615831 M 26.928005537803305,-6.145390429719865 A 1.0,1.0 0 1,0 24.928005537803305,-6.145390429719865 A 1.0,1.0 0 1,0 26.928005537803305,-6.145390429719865 M 26.436402171292915,7.938308338827386 A 1.0,1.0 0 1,0 24.436402171292915,7.938308338827386 A 1.0,1.0 0 1,0 26.436402171292915,7.938308338827386 M 18.830322718602048,19.80168897979551 A 1.0,1.0 0 1,0 16.830322718602048,19.80168897979551 A 1.0,1.0 0 1,0 18.830322718602048,19.80168897979551 M 6.237162005907379,26.126603851743372 A 1.0,1.0 0 1,0 4.237162005907379,26.126603851743372 A 1.0,1.0 0 1,0 6.237162005907379,26.126603851743372 M -7.820815295217056,25.143995550224634 A 1.0,1.0 0 1,0 -9.820815295217056,25.143995550224634 A 1.0,1.0 0 1,0 -7.820815295217056,25.143995550224634 M -19.411640242961056,17.128696310402145 A 1.0,1.0 0 1,0 -21.411640242961056,17.128696310402145 A 1.0,1.0 0 1,0 -19.411640242961056,17.128696310402145 M -25.293398106046507,4.322558355765867 A 1.0,1.0 0 1,0 -27.293398106046507,4.322558355765867 A 1.0,1.0 0 1,0 -25.293398106046507,4.322558355765867 M -23.820981004049518,-9.692584624271504 A 1.0,1.0 0 1,0 -25.820981004049518,-9.692584624271504 A 1.0,1.0 0 1,0 -23.820981004049518,-9.692584624271504 M -15.406219045273033,-20.99674430335741 A 1.0,1.0 0 1,0 -17.406219045273033,-20.99674430335741 A 1.0,1.0 0 1,0 -15.406219045273033,-20.99674430335741 M -2.4026928313864597,-26.428185261142744 A 1.0,1.0 0 1,0 -4.40269283138646,-26.428185261142744 A 1.0,1.0 0 1,0 -2.4026928313864597,-26.428185261142744 " fill="#EBD27B" fill-rule="evenodd" stroke="black" stroke-width="0.1" /><polygon fill="darkblue" opacity="0.8" points="1.9561489896192636e-15,-31.94633735998348 2.4551925602718102e-15,-40.09633735998348 2.4551925602718102e-15,-40.09633735998348 0.022530375484170848,-40.06349161259882 0.05170615311131831,-40.02085880074886 0.08401138530994358,-39.97352186221452 0.1184988719117117,-39.9228340394918 0.1546772525769557,-39.869489763480686 0.19223807289525338,-39.813920159072055 0.23096672222544928,-39.75642179750021 0.2707037769123916,-39.69721244818645 0.31132527737973553,-39.63645945536314 0.3527315311788187,-39.574295808451076 0.3948402503418893,-39.51082996709195 0.437582094508947,-39.44615222571373 0.48089764190080175,-39.38033902791423 0.5247352538017686,-39.3134560001979 0.5690495227349847,-39.24556015064411 0.6138001157757917,-39.17670150330985 0.6589508935233304,-39.106924339723705 0.7044692263878461,-39.036268159669035 0.7503254552963231,-38.96476843690512 0.7964924601773176,-38.8924572221469 0.8429453102747883,-38.81936363030685 0.8896609775439083,-38.745514238690454 0.9366180993457841,-38.670933415740905 0.9837967801458812,-38.59564359494689 1.0311784244165163,-38.51966550496881 1.0787455947571487,-38.443018364454694 1.1264818905840819,-38.36572004811432 1.174371843740808,-38.287787229199 1.222400828136518,-38.20923550246133 1.2705549810989236,-38.13007949084913 1.31882113457467,-38.050332938554355 1.3671867546595893,-37.970008792544895 1.4156398882159067,-37.88911927431871 1.4641691155514183,-37.807675943312475 1.5127635083102804,-37.72568975315109 1.5614125918655704,-37.6431711017266 1.6101063116177574,-37.56012987593516 1.6588350026964385,-37.476575491769616 1.7075893626389969,-37.39251693035869 1.7563604266830926,-37.307962770454964 1.8051395453622585,-37.222921217800966 1.8539183641376382,-37.13740013174129 1.9026888048355897,-37.051407049397895 1.9514430486917116,-36.96494920768242 2.000173520828136,-36.87803356338341 2.048872876012861,-36.79066681153496 2.09753398556911,-36.70285540224792 2.14614992531872,-36.614605556161365 2.194713964457516,-36.525923278653806 2.2432195552725904,-36.43681437293623 2.291660323621886,-36.347284452135355 2.340030060105324,-36.257338950462845 2.388322711864545,-36.16698313355553 2.4365323749553593,-36.07622210806233 2.4846532872426415,-35.98506083054541 2.532679821772959,-35.89350411575584 2.580606480584563,-35.80155664433804 2.6284278889185937,-35.70922297001129 2.6761387897988764,-35.61650752627206 2.723734038950902,-35.52341463265662 2.7712086000332232,-35.42994850059914 2.818557540157333,-35.33611323891775 2.865776025673952,-35.241912858957335 2.912859318205962,-35.14735127941567 2.959802770909745,-35.05243233087674 3.006601824948512,-34.95715976007318 3.0532520061624124,-34.861537233897714 3.0997489219217487,-34.765568343181656 3.146088258150555,-34.66925660625724 3.1922657765089926,-34.572605472318884 3.2382773117239356,-34.47561832459732 3.284118769057892,-34.37829848335944 3.3297861219073117,-34.280649208745444 3.3752754095220023,-34.182673703454434 3.4205827348378413,-34.084375115287976 3.465704262415915,-33.98575653956115 3.5106362164813665,-33.88682102138941 3.5553748790559325,-33.787571557859124 3.5999165881786555,-33.688011100089 3.6442577362093727,-33.588142555189194 3.688394768210285,-33.48796878812421 3.7323241804010694,-33.38749262348545 3.7760425186832984,-33.28671684717865 3.8195463772303215,-33.185644208031434 3.8628323971389795,-33.08427741932527 3.9058972651396666,-32.98261916025642 3.9487377123617025,-32.88067207732984 3.991350513150965,-32.77843878568966 4.033732483937054,-32.6759218703899 4.075880482147334,-32.57312388760862 4.117791405165545,-32.470047365808554 4.159462189332569,-32.36669480684717 4.200889808987323,-32.26306868703867 4.24207127554572,-32.15917145817063 4.2830036366157955,-32.05500554847753 4.323683975147313,-31.950573363573387 4.364109408614065,-31.84587728734561 4.404277088227418,-31.74091968281193 4.4441841981795065,-31.63570289294246 4.4441841981795065,-31.63570289294246 4.211682664054304,-31.66749437286096 3.978953876665623,-31.697577143454417 3.7460103935541684,-31.725949581521757 3.512864783845143,-31.752610156147746 3.27952962757006,-31.777557428785595 3.0460175149879767,-31.80079005333457 2.8123410459061,-31.822306776212628 2.578512828999985,-31.842106436424064 2.3445454811331516,-31.86018796562215 2.1104516266763214,-31.876550388166777 1.8762438968262605,-31.89119282117711 1.6419349289241822,-31.904114474579217 1.4075373657738863,-31.915314651148698 1.1730638549596004,-31.92479274654831 0.9385270481635029,-31.932548249360586 0.7039396004830856,-31.93858074111541 0.469314169748334,-31.942889896312604 0.2346634158386887,-31.945475482439498 1.9561489896192636e-15,-31.94633735998348" stroke="black" stroke-width="0.08" /><line stroke="darkblue" stroke-width="0.15" x1="1.9561489896192636e-15" x2="2.4551925602718102e-15" y1="-31.94633735998348" y2="-40.09633735998348" /><circle cx="0" cy="0" fill="none" r="31.44633735998348" stroke="black" stroke-width="0.08" /><circle cx="0" cy="0" fill="none" r="28.24633735998348" stroke="black" stroke-width="0.05" /><circle cx="0" cy="0" fill="none" r="25.046337359983482" stroke="black" stroke-width="0.05" /><line stroke="black" stroke-width="0.05" x1="1.92553281964058e-15" x2="1.9561489896192636e-15" y1="-31.44633735998348" y2="-31.94633735998348" /><line stroke="black" stroke-width="0.05" x1="2.8014481563309466" x2="2.845991470298822" y1="-31.321302999480764" y2="-31.819314940282148" /><line stroke="black" stroke-width="0.05" x1="5.580618533555305" x2="5.669350942510772" y1="-30.947194220814783" y2="-31.43925779353782" /><line stroke="black" stroke-width="0.05" x1="8.315410510741215" x2="8.447626393556916" y1="-30.32698602558038" y2="-30.809188224176843" /><line stroke="black" stroke-width="0.05" x1="10.984076374502475" x2="11.158724319170272" y1="-29.46561045620792" y2="-29.934116694611756" /><line stroke="black" stroke-width="0.05" x1="13.565394261965134" x2="13.781085426673357" y1="-28.36991737519403" y2="-28.82100198085777" /><line stroke="black" stroke-width="0.05" x1="16.03883692204627" x2="16.293856079578685" y1="-27.048619993373013" y2="-27.47869583469807" /><line stroke="black" stroke-width="0.05" x1="18.384734953015382" x2="18.677054130644166" y1="-25.512225580401005" y2="-25.917872592457584" /><line stroke="black" stroke-width="0.05" x1="20.584433218234516" x2="20.9117278246396" y1="-23.77295190845967" y2="-24.15094429015293" /><line stroke="black" stroke-width="0.05" x1="22.620439196222257" x2="22.98010650719195" y1="-21.844630093638678" y2="-22.19196196004288" /><line stroke="black" stroke-width="0.05" x1="24.476562085326695" x2="24.865741941236937" y1="-19.742594607625428" y2="-20.056503893492668" /><line stroke="black" stroke-width="0.05" x1="26.138041556814024" x2="26.553639107294984" y1="-17.48356133435508" y2="-17.761551758712155" /><line stroke="black" stroke-width="0.05" x1="27.591665132497827" x2="28.030375447416873" y1="-15.085494641343272" y2="-15.325355558509099" /><line stroke="black" stroke-width="0.05" x1="28.82587325349424" x2="29.28420760454296" y1="-12.567464522781766" y2="-12.767288501945302" /><line stroke="black" stroke-width="0.05" x1="29.830851204571434" x2="30.30516480845925" y1="-9.949494950428983" y2="-10.107692943990708" /><line stroke="black" stroke-width="0.05" x1="30.598607163089227" x2="31.085128165723177" y1="-7.252404638244989" y2="-7.367718618299689" /><line stroke="black" stroke-width="0.05" x1="31.12303575186512" x2="31.61789522302678" y1="-4.497641487048337" y2="-4.569154449520904" /><line stroke="black" stroke-width="0.05" x1="31.39996659057937" x2="31.899229290574073" y1="-1.7071120257300394" y2="-1.734255282609017" /><line stroke="black" stroke-width="0.05" x1="31.427197459626836" x2="31.92689313324158" y1="1.0969927946515479" y2="1.1144350929722342" /><line stroke="black" stroke-width="0.05" x1="31.20451181268873" x2="31.700666761601756" y1="3.8923740685682366" y2="3.954263216802101" /><line stroke="black" stroke-width="0.05" x1="30.73368049876023" x2="31.222349181331033" y1="6.656802262199017" y2="6.762646103184296" /><line stroke="black" stroke-width="0.05" x1="30.018447679939953" x2="30.49574408709069" y1="9.368293987946815" y2="9.517250826396756" /><line stroke="black" stroke-width="0.05" x1="29.06450105696634" x2="29.52662961464619" y1="12.005286821542228" y2="12.196172117405322" /><line stroke="black" stroke-width="0.05" x1="27.879426639274552" x2="28.322712391763364" y1="14.546810771547188" y2="14.77810655975015" /><line stroke="black" stroke-width="0.05" x1="26.47264841925315" x2="26.893566253279513" y1="16.972655037692437" y2="17.242521999357912" /><line stroke="black" stroke-width="0.05" x1="24.85535343042505" x2="25.250556107701776" y1="19.263528731947076" y2="19.569820821092897" /><line stroke="black" stroke-width="0.05" x1="23.040402785507926" x2="23.406747560763495" y1="21.40121428422816" y2="21.741495793633163" /><line stroke="black" stroke-width="0.05" x1="21.042229401800444" x2="21.376803014633612" y1="23.368712312831825" y2="23.74027724335644" /><line stroke="black" stroke-width="0.05" x1="18.876723227206245" x2="19.176865069022575" y1="25.15037680754197" y2="25.55027038687415" /><line stroke="black" stroke-width="0.05" x1="16.5611048796056" x2="16.82442815140704" y1="26.732039550408356" y2="27.157081730112655" /><line stroke="black" stroke-width="0.05" x1="14.113788704424257" x2="14.338199397199952" y1="28.101122784770702" y2="28.54793352878648" /><line stroke="black" stroke-width="0.05" x1="11.554236339398182" x2="11.737949886179965" y1="29.246739236558035" y2="29.71176540004656" /><line stroke="black" stroke-width="0.05" x1="8.902801951021923" x2="9.044357418183434" y1="30.159778692470095" y2="30.639322277263684" /><line stroke="black" stroke-width="0.05" x1="6.180570373396853" x2="6.278842078343672" y1="30.832980446550767" y2="31.323228008509872" /><line stroke="black" stroke-width="0.05" x1="3.4091894366376345" x2="3.463395899501827" y1="31.26099103904115" y2="31.75804401346516" /><line stroke="black" stroke-width="0.05" x1="0.610697818201076" x2="0.6204079763541558" y1="31.440406828359222" y2="31.94031253229612" /><line stroke="black" stroke-width="0.05" x1="-2.1926502138956985" x2="-2.227513577930677" y1="31.369801057663658" y2="31.868584122580828" /><line stroke="black" stroke-width="0.05" x1="-4.978561772284125" x2="-5.057721416780904" y1="31.049735200762083" y2="31.54342918561823" /><line stroke="black" stroke-width="0.05" x1="-7.72488262856343" x2="-7.847709057284404" y1="30.48275449713841" y2="30.967433430461956" /><line stroke="black" stroke-width="0.05" x1="-10.409773388970912" x2="-10.575289857070272" y1="29.67336771160574" y2="30.145177311749602" /><line stroke="black" stroke-width="0.05" x1="-13.011883166412506" x2="-13.218773447742544" y1="28.628011279540946" y2="29.08319960484288" /><line stroke="black" stroke-width="0.05" x1="-15.510519367772789" x2="-15.75713822182589" y1="27.35499812282644" y2="27.78994540793756" /><line stroke="black" stroke-width="0.05" x1="-17.8858122463153" x2="-18.170198501566055" y1="25.86445154352689" y2="26.275698984642883" /><line stroke="black" stroke-width="0.05" x1="-20.118872910613643" x2="-20.438765060219204" y1="24.168224720994083" y2="24.55250198108207" /><line stroke="black" stroke-width="0.05" x1="-22.191943533488914" x2="-22.544797719326926" y1="22.279806452577912" y2="22.634057667870948" /><line stroke="black" stroke-width="0.05" x1="-24.08853856645633" x2="-24.471548808487086" y1="20.214213887515857" y2="20.535621968465204" /><line stroke="black" stroke-width="0.05" x1="-25.793575836710524" x2="-26.20369634679469" y1="17.987873107006173" y2="18.273882140444456" /><line stroke="black" stroke-width="0.05" x1="-27.293496484135034" x2="-27.727465886862152" y1="15.61848850012066" y2="15.866824074488626" /><line stroke="black" stroke-width="0.05" x1="-28.576372784568623" x2="-29.03074005248665" y1="13.124901974310458" y2="13.33358926631624" /><line stroke="black" stroke-width="0.05" x1="-29.632003001892222" x2="-30.10315489889502" y1="10.526943120096307" y2="10.694322598977879" /><line stroke="black" stroke-width="0.05" x1="-30.451992514650282" x2="-30.936182329286716" y1="7.8452715214692175" y2="7.970012145975978" /><line stroke="black" stroke-width="0.05" x1="-31.029820572068363" x2="-31.52319791227897" y1="5.101212465986478" y2="5.182322269134459" /><line stroke="black" stroke-width="0.05" x1="-31.360892148607387" x2="-31.859533560953793" y1="2.3165873610353036" y2="2.353421338463518" /><line stroke="black" stroke-width="0.05" x1="-31.442574484694795" x2="-31.942514654590486" y1="-0.4864597951658761" y2="-0.49419455596801826" /><line stroke="black" stroke-width="0.05" x1="-31.274218023052097" x2="-31.771481307882997" y1="-3.2856385078849346" y2="-3.3378804982679866" /><line stroke="black" stroke-width="0.05" x1="-30.857161574128153" x2="-31.347793618504088" y1="-6.058689045168257" y2="-6.155022824454078" /><line stroke="black" stroke-width="0.05" x1="-30.19472166956147" x2="-30.674820851286608" y1="-8.783559452500329" y2="-8.923218951664733" /><line stroke="black" stroke-width="0.05" x1="-29.29216618833527" x2="-29.757914645031697" y1="-11.4385809151678" y2="-11.620455528802832" /><line stroke="black" stroke-width="0.05" x1="-28.156672465356404" x2="-28.604366455009817" y1="-14.00264007380513" y2="-14.225283491916265" /><line stroke="black" stroke-width="0.05" x1="-26.797270215588643" x2="-27.223349569581856" y1="-16.455346922827804" y2="-16.716988632233488" /><line stroke="black" stroke-width="0.05" x1="-25.2247697276211" x2="-25.62584616203792" y1="-18.777196956584945" y2="-19.075756320456676" /><line stroke="black" stroke-width="0.05" x1="-23.451675897693473" x2="-23.824559957754733" y1="-20.949726273806917" y2="-21.28282907738598" /><line stroke="black" stroke-width="0.05" x1="-21.492088787800185" x2="-21.833815211163394" y1="-22.955658406920207" y2="-23.320655737835637" /><line stroke="black" stroke-width="0.05" x1="-19.3615914986585" x2="-19.669442795886148" y1="-24.779041708608666" y2="-25.17303102165567" /><line stroke="black" stroke-width="0.05" x1="-17.077126249201648" x2="-17.348654313880697" y1="-26.405376203090174" y2="-26.82522440195692" /><line stroke="black" stroke-width="0.05" x1="-14.65685964804206" x2="-14.889905224705837" y1="-27.8217288933576" y2="-28.264097245748964" /><line stroke="black" stroke-width="0.05" x1="-12.120038228297902" x2="-12.312748083336873" y1="-29.016836607433454" y2="-29.478207295460837" /><line stroke="black" stroke-width="0.05" x1="-9.48683539460427" x2="-9.637677053618535" y1="-29.981195565780503" y2="-30.45789966048268" /><line stroke="black" stroke-width="0.05" x1="-6.77819099942257" x2="-6.885964933821176" y1="-30.707136957607098" y2="-31.19538359514211" /><line stroke="black" stroke-width="0.05" x1="-4.015644824375333" x2="-4.079493990311672" y1="-31.188887925066524" y2="-31.684794452558585" /><line stroke="black" stroke-width="0.05" x1="-1.2211652908021406" x2="-1.2405819445895563" y1="-31.42261747038959" y2="-31.92224032170416" /><circle cx="1.8275610757087918e-15" cy="-29.84633735998348" fill="none" r="1.0" stroke="black" stroke-width="0.1" /><circle cx="15.222775617942537" cy="-25.672377301132823" fill="none" r="1.0" stroke="black" stroke-width="0.1" /><circle cx="26.18779212475688" cy="-14.317939706412627" fill="none" r="1.0" stroke="black" stroke-width="0.1" /><circle cx="29.828171304059655" cy="1.0411774400253517" fill="none" r="1.0" stroke="black" stroke-width="0.1" /><circle cx="25.125711350368785" cy="16.10908076036292" fill="none" r="1.0" stroke="black" stroke-width="0.1" /><circle cx="13.395674487542019" cy="26.671328403920217" fill="none" r="1.0" stroke="black" stroke-width="0.1" /><circle cx="-2.081087448983767" cy="29.773695249928718" fill="none" r="1.0" stroke="black" stroke-width="0.1" /><circle cx="-16.975776229512892" cy="24.548459731955703" fill="none" r="1.0" stroke="black" stroke-width="0.1" /><circle cx="-27.12239752723093" cy="12.457102639891952" fill="none" r="1.0" stroke="black" stroke-width="0.1" /><circle cx="-29.68297551159321" cy="-3.118464138659194" fill="none" r="1.0" stroke="black" stroke-width="0.1" /><circle cx="-23.941325137487265" cy="-17.821806992195434" fill="none" r="1.0" stroke="black" stroke-width="0.1" /><circle cx="-11.503366692173174" cy="-27.540450405745844" fill="none" r="1.0" stroke="black" stroke-width="0.1" /><circle cx="4.1520447046591" cy="-29.556122522693297" fill="none" r="1.0" stroke="black" stroke-width="0.1" /><circle cx="5.9168767884838465" cy="-29.253964224970375" fill="yellow" r="0.35" stroke="black" stroke-width="0.08" /><circle cx="5.9168767884838465" cy="-29.253964224970375" fill="black" r="0.08" /><circle cx="7.0461380357104755" cy="-25.69784491905431" fill="none" r="1.0" stroke="black" stroke-width="0.1" /><circle cx="19.167633010913182" cy="-18.51024417615831" fill="none" r="1.0" stroke="black" stroke-width="0.1" /><circle cx="25.928005537803305" cy="-6.145390429719865" fill="none" r="1.0" stroke="black" stroke-width="0.1" /><circle cx="25.436402171292915" cy="7.938308338827386" fill="none" r="1.0" stroke="black" stroke-width="0.1" /><circle cx="17.830322718602048" cy="19.80168897979551" fill="none" r="1.0" stroke="black" stroke-width="0.1" /><circle cx="5.237162005907379" cy="26.126603851743372" fill="none" r="1.0" stroke="black" stroke-width="0.1" /><circle cx="-8.820815295217056" cy="25.143995550224634" fill="none" r="1.0" stroke="black" stroke-width="0.1" /><circle cx="-20.411640242961056" cy="17.128696310402145" fill="none" r="1.0" stroke="black" stroke-width="0.1" /><circle cx="-26.293398106046507" cy="4.322558355765867" fill="none" r="1.0" stroke="black" stroke-width="0.1" /><circle cx="-24.820981004049518" cy="-9.692584624271504" fill="none" r="1.0" stroke="black" stroke-width="0.1" /><circle cx="-16.406219045273033" cy="-20.99674430335741" fill="none" r="1.0" stroke="black" stroke-width="0.1" /><path d="M -14.767647797833016,-21.59274412562672 A 0.4 0.4 0 1 0 -14.767647797833016,-22.292744125626722 A 0.3 0.3 0 1 1 -14.767647797833016,-21.59274412562672" fill="white" stroke="black" stroke-width="0.05" /><circle cx="-3.4026928313864597" cy="-26.428185261142744" fill="none" r="1.0" stroke="black" stroke-width="0.1" /><circle cx="0" cy="0" fill="black" r="0.2" /></g></svg>