<?xml version="1.0" encoding="utf-8" ?>
<svg baseProfile="full" height="92cm" version="1.1" viewBox="-45 -45 90 90" width="92cm" xmlns="http://www.w3.org/2000/svg" xmlns:ev="http://www.w3.org/2001/xml-events" xmlns:xlink="http://www.w3.org/1999/xlink"><defs /><g transform="rotate(-0.0, 0, 0)"><polygon fill="darkblue" opacity="0.8" points="-0.0,-7.347880794884119e-17 -0.0035172257073842195,-0.06487141105436516 -0.01402766657394805,-0.12898226412661457 -0.03140809729031857,-0.19158091808158814 -0.05545474819742591,-0.25193346093615887 -0.08588569429944648,-0.30933231430621294 -0.1223441605766139,-0.3631045291162593 -0.16440270484612146,-0.41261967531205396 -0.21156822913090345,-0.4572972330765819 -0.2632877607825706,-0.4966133988941343 -0.31895493558012594,-0.5301072266676138 -0.37791710679605145,-0.5573860318900749 -0.4394829968824676,-0.5781299955115338 -0.5029308020683413,-0.5920959135249156 -0.5675166548487495,-0.5991200483106742 -0.6324833451512506,-0.5991200483106742 -0.6970691979316589,-0.5920959135249156 -0.7605170031175326,-0.5781299955115338 -0.8220828932039487,-0.5573860318900749 -0.8810450644198741,-0.5301072266676138 -0.9367122392174294,-0.4966133988941343 -0.9884317708690966,-0.45729723307658177 -1.0355972951538785,-0.4126196753120539 -1.0776558394233864,-0.363104529116259 -1.1141143057005536,-0.3093323143062129 -1.1445452518025743,-0.2519334609361586 -1.1685919027096814,-0.1915809180815878 -1.185972333426052,-0.12898226412661448 -1.1964827742926158,-0.06487141105436509 -1.2,-0.0 -1.2,-38.89633735998348 -1.14,-39.16466551728345 -1.08,-39.27581067920368 -1.02,-39.36109536152836 -0.96,-39.43299367458343 -0.8999999999999999,-39.49633735998348 -0.84,-39.55360442898968 -0.78,-39.60626693395543 -0.72,-39.65528399842389 -0.66,-39.7013218318834 -0.6,-39.74486549740733 -0.5399999999999999,-39.786281178434955 -0.48,-39.82585336307326 -0.42,-39.8638082897793 -0.36000000000000004,-39.900329391824364 -0.3,-39.935567844524805 -0.23999999999999994,-39.969649989183374 -0.18000000000000002,-40.00268269485862 -0.11999999999999997,-40.03475731764409 -0.06000000000000005,-40.06595268136055 -0.0,-40.09633735998348 0.0,0.0" stroke="black" stroke-width="0.15" /><line stroke="black" stroke-width="0.15" x1="0.0" x2="0.0" y1="0.0" y2="-40.09633735998348" /><circle cx="-0.6" cy="0" fill="#EBD27B" opacity="1.0" r="0.72" stroke="black" stroke-width="0.15" /><circle cx="-0.6" cy="0" fill="black" r="0.2" /></g></svg>